<svg width="21" height="21" viewBox="0 0 21 21" fill="none" xmlns="http://www.w3.org/2000/svg">
<path fill-rule="evenodd" clip-rule="evenodd" d="M1.88208 10.0377C1.88208 9.69124 2.16296 9.41037 2.50944 9.41037L17.566 9.41037C17.9125 9.41037 18.1934 9.69124 18.1934 10.0377C18.1934 10.3842 17.9125 10.6651 17.566 10.6651L2.50944 10.6651C2.16296 10.6651 1.88208 10.3842 1.88208 10.0377Z" fill="#282828"/>
<path fill-rule="evenodd" clip-rule="evenodd" d="M12.1034 4.57525C12.3484 4.33025 12.7456 4.33025 12.9906 4.57525L18.0095 9.59411C18.2545 9.83911 18.2545 10.2363 18.0095 10.4813L12.9906 15.5002C12.7456 15.7452 12.3484 15.7452 12.1034 15.5002C11.8584 15.2552 11.8584 14.858 12.1034 14.613L16.6787 10.0377L12.1034 5.46247C11.8584 5.21747 11.8584 4.82025 12.1034 4.57525Z" fill="#282828"/>
</svg>
