<svg width="26" height="28" viewBox="0 0 26 28" fill="none" xmlns="http://www.w3.org/2000/svg">
<path fill-rule="evenodd" clip-rule="evenodd" d="M19.9756 8.50747H6.06585C5.93529 8.50747 5.82945 8.62657 5.82945 8.77349V17.0193C5.82945 20.5944 8.40485 23.4925 11.5818 23.4925H14.4597C17.6366 23.4925 20.212 20.5944 20.212 17.0193V8.77349C20.212 8.62657 20.1062 8.50747 19.9756 8.50747ZM6.06585 7C5.19546 7 4.48987 7.79402 4.48987 8.77349V17.0193C4.48987 21.4269 7.66502 25 11.5818 25H14.4597C18.3764 25 21.5516 21.4269 21.5516 17.0193V8.77349C21.5516 7.79402 20.846 7 19.9756 7H6.06585Z" fill="#282828"/>
<path fill-rule="evenodd" clip-rule="evenodd" d="M8.97986 5.95496C8.97986 3.7707 10.789 2 13.0208 2C15.2525 2 17.0617 3.77069 17.0617 5.95496V10.3153C17.0617 10.6935 16.7485 11 16.3621 11C15.9758 11 15.6626 10.6935 15.6626 10.3153V5.95496C15.6626 4.52699 14.4798 3.36939 13.0208 3.36939C11.5618 3.36939 10.379 4.52699 10.379 5.95496V10.3153C10.379 10.6935 10.0658 11 9.67944 11C9.29307 11 8.97986 10.6935 8.97986 10.3153V5.95496Z" fill="#282828"/>
</svg>
