<svg width="20" height="21" viewBox="0 0 20 21" fill="none" xmlns="http://www.w3.org/2000/svg">
<path fill-rule="evenodd" clip-rule="evenodd" d="M1.04163 10.6699C1.04163 15.6175 5.05241 19.6283 9.99996 19.6283C14.9475 19.6283 18.9583 15.6175 18.9583 10.6699C18.9583 5.72236 14.9475 1.71158 9.99996 1.71158C5.05241 1.71158 1.04163 5.72236 1.04163 10.6699ZM9.99996 18.3783C5.74276 18.3783 2.29163 14.9271 2.29163 10.6699C2.29163 6.41272 5.74276 2.96158 9.99996 2.96158C14.2572 2.96158 17.7083 6.41272 17.7083 10.6699C17.7083 14.9271 14.2572 18.3783 9.99996 18.3783Z" fill="#282828"/>
<path fill-rule="evenodd" clip-rule="evenodd" d="M6.64143 14.0285C6.88551 14.2726 7.28124 14.2726 7.52532 14.0285L10 11.5538L12.4748 14.0285C12.7188 14.2726 13.1146 14.2726 13.3586 14.0285C13.6027 13.7845 13.6027 13.3887 13.3586 13.1447L10.442 10.228C10.1979 9.98391 9.80218 9.98391 9.5581 10.228L6.64143 13.1447C6.39735 13.3887 6.39735 13.7845 6.64143 14.0285Z" fill="#282828"/>
<path fill-rule="evenodd" clip-rule="evenodd" d="M6.64143 10.2785C6.88551 10.5226 7.28124 10.5226 7.52532 10.2785L10 7.80381L12.4748 10.2785C12.7188 10.5226 13.1146 10.5226 13.3586 10.2785C13.6027 10.0345 13.6027 9.63873 13.3586 9.39465L10.442 6.47798C10.1979 6.23391 9.80218 6.23391 9.5581 6.47798L6.64143 9.39465C6.39735 9.63873 6.39735 10.0345 6.64143 10.2785Z" fill="#282828"/>
</svg>
