<svg width="4" height="120" viewBox="0 0 4 120" fill="none" xmlns="http://www.w3.org/2000/svg">
<path d="M3.17986 299H0V287.036H3.17986V299ZM3.17986 275.079H0V263.116H3.17986V275.079ZM3.17986 251.158H0V239.201H3.17986V251.158ZM3.17986 227.238H0V215.281H3.17986V227.238ZM3.17986 203.323H0V191.366H3.17986V203.323ZM3.17986 179.403H0V167.445H3.17986V179.403ZM3.17986 155.482H0V143.525H3.17986V155.482ZM3.17986 131.561H0V119.604H3.17986V131.561ZM3.17986 107.64H0V95.6831H3.17986V107.64ZM3.17986 83.7195H0V71.7623H3.17986V83.7195ZM3.17986 59.7987H0V47.8415H3.17986V59.7987ZM3.17986 35.8844H0V23.9208H3.17986V35.8844ZM3.17986 11.9636H0V0H3.17986V11.9636Z" fill="white"/>
</svg>
