<svg width="32" height="33" viewBox="0 0 32 33" fill="none" xmlns="http://www.w3.org/2000/svg">
<path fill-rule="evenodd" clip-rule="evenodd" d="M12.3333 4.78857C12.3333 4.23629 12.781 3.78857 13.3333 3.78857H18.6666C19.2189 3.78857 19.6666 4.23629 19.6666 4.78857V11.1219H24C24.4044 11.1219 24.7691 11.3656 24.9238 11.7392C25.0786 12.1129 24.9931 12.543 24.7071 12.829L16.7071 20.829C16.5195 21.0166 16.2652 21.1219 16 21.1219C15.7347 21.1219 15.4804 21.0166 15.2929 20.829L7.29292 12.829C7.00692 12.543 6.92137 12.1129 7.07615 11.7392C7.23093 11.3656 7.59557 11.1219 8.00003 11.1219H12.3333V4.78857ZM14.3333 5.78857V12.1219C14.3333 12.6742 13.8856 13.1219 13.3333 13.1219H10.4142L16 18.7077L21.5858 13.1219H18.6666C18.1143 13.1219 17.6666 12.6742 17.6666 12.1219V5.78857H14.3333Z" fill="#282828"/>
<path fill-rule="evenodd" clip-rule="evenodd" d="M3 25.4552C3 24.903 3.44772 24.4552 4 24.4552H28C28.5523 24.4552 29 24.903 29 25.4552C29 26.0075 28.5523 26.4552 28 26.4552H4C3.44772 26.4552 3 26.0075 3 25.4552Z" fill="#282828"/>
<path fill-rule="evenodd" clip-rule="evenodd" d="M8.33333 30.1219C8.33333 29.5696 8.78105 29.1219 9.33333 29.1219H22.6667C23.219 29.1219 23.6667 29.5696 23.6667 30.1219C23.6667 30.6742 23.219 31.1219 22.6667 31.1219H9.33333C8.78105 31.1219 8.33333 30.6742 8.33333 30.1219Z" fill="#282828"/>
<path d="M19.6666 11.1219H19.4166C19.4166 11.26 19.5286 11.3719 19.6666 11.3719V11.1219ZM24.9238 11.7392L24.6929 11.8349L24.6929 11.8349L24.9238 11.7392ZM24.7071 12.829L24.8838 13.0058L24.7071 12.829ZM16.7071 20.829L16.5303 20.6522L16.7071 20.829ZM15.2929 20.829L15.4696 20.6522L15.2929 20.829ZM7.29292 12.829L7.11614 13.0058L7.29292 12.829ZM12.3333 11.1219V11.3719C12.4714 11.3719 12.5833 11.26 12.5833 11.1219H12.3333ZM14.3333 5.78857V5.53857C14.1952 5.53857 14.0833 5.6505 14.0833 5.78857H14.3333ZM10.4142 13.1219V12.8719C10.3131 12.8719 10.222 12.9328 10.1833 13.0262C10.1446 13.1197 10.166 13.2272 10.2375 13.2987L10.4142 13.1219ZM16 18.7077L15.8232 18.8845C15.8701 18.9314 15.9337 18.9577 16 18.9577C16.0663 18.9577 16.1299 18.9314 16.1767 18.8845L16 18.7077ZM21.5858 13.1219L21.7625 13.2987C21.834 13.2272 21.8554 13.1197 21.8167 13.0262C21.778 12.9328 21.6869 12.8719 21.5858 12.8719V13.1219ZM17.6666 5.78857H17.9166C17.9166 5.6505 17.8047 5.53857 17.6666 5.53857V5.78857ZM13.3333 3.53857C12.6429 3.53857 12.0833 4.09822 12.0833 4.78857H12.5833C12.5833 4.37436 12.9191 4.03857 13.3333 4.03857V3.53857ZM18.6666 3.53857H13.3333V4.03857H18.6666V3.53857ZM19.9166 4.78857C19.9166 4.09822 19.357 3.53857 18.6666 3.53857V4.03857C19.0808 4.03857 19.4166 4.37436 19.4166 4.78857H19.9166ZM19.9166 11.1219V4.78857H19.4166V11.1219H19.9166ZM24 10.8719H19.6666V11.3719H24V10.8719ZM25.1548 11.6436C24.9613 11.1765 24.5055 10.8719 24 10.8719V11.3719C24.3033 11.3719 24.5768 11.5546 24.6929 11.8349L25.1548 11.6436ZM24.8838 13.0058C25.2413 12.6483 25.3483 12.1107 25.1548 11.6436L24.6929 11.8349C24.809 12.1152 24.7448 12.4377 24.5303 12.6522L24.8838 13.0058ZM16.8838 21.0058L24.8838 13.0058L24.5303 12.6522L16.5303 20.6522L16.8838 21.0058ZM16 21.3719C16.3315 21.3719 16.6494 21.2402 16.8838 21.0058L16.5303 20.6522C16.3896 20.7929 16.1989 20.8719 16 20.8719V21.3719ZM15.1161 21.0058C15.3505 21.2402 15.6684 21.3719 16 21.3719V20.8719C15.801 20.8719 15.6103 20.7929 15.4696 20.6522L15.1161 21.0058ZM7.11614 13.0058L15.1161 21.0058L15.4696 20.6522L7.4697 12.6522L7.11614 13.0058ZM6.84518 11.6436C6.6517 12.1106 6.75865 12.6483 7.11614 13.0058L7.4697 12.6522C7.2552 12.4377 7.19103 12.1152 7.30712 11.8349L6.84518 11.6436ZM8.00003 10.8719C7.49445 10.8719 7.03866 11.1765 6.84518 11.6436L7.30712 11.8349C7.42321 11.5546 7.69668 11.3719 8.00003 11.3719V10.8719ZM12.3333 10.8719H8.00003V11.3719H12.3333V10.8719ZM12.0833 4.78857V11.1219H12.5833V4.78857H12.0833ZM14.5833 12.1219V5.78857H14.0833V12.1219H14.5833ZM13.3333 13.3719C14.0237 13.3719 14.5833 12.8123 14.5833 12.1219H14.0833C14.0833 12.5361 13.7475 12.8719 13.3333 12.8719V13.3719ZM10.4142 13.3719H13.3333V12.8719H10.4142V13.3719ZM16.1767 18.5309L10.591 12.9451L10.2375 13.2987L15.8232 18.8845L16.1767 18.5309ZM21.409 12.9451L15.8232 18.5309L16.1767 18.8845L21.7625 13.2987L21.409 12.9451ZM18.6666 13.3719H21.5858V12.8719H18.6666V13.3719ZM17.4166 12.1219C17.4166 12.8123 17.9763 13.3719 18.6666 13.3719V12.8719C18.2524 12.8719 17.9166 12.5361 17.9166 12.1219H17.4166ZM17.4166 5.78857V12.1219H17.9166V5.78857H17.4166ZM14.3333 6.03857H17.6666V5.53857H14.3333V6.03857ZM4 24.2052C3.30964 24.2052 2.75 24.7649 2.75 25.4552H3.25C3.25 25.041 3.58579 24.7052 4 24.7052V24.2052ZM28 24.2052H4V24.7052H28V24.2052ZM29.25 25.4552C29.25 24.7649 28.6904 24.2052 28 24.2052V24.7052C28.4142 24.7052 28.75 25.041 28.75 25.4552H29.25ZM28 26.7052C28.6904 26.7052 29.25 26.1456 29.25 25.4552H28.75C28.75 25.8695 28.4142 26.2052 28 26.2052V26.7052ZM4 26.7052H28V26.2052H4V26.7052ZM2.75 25.4552C2.75 26.1456 3.30964 26.7052 4 26.7052V26.2052C3.58579 26.2052 3.25 25.8695 3.25 25.4552H2.75ZM9.33333 28.8719C8.64298 28.8719 8.08333 29.4316 8.08333 30.1219H8.58333C8.58333 29.7077 8.91912 29.3719 9.33333 29.3719V28.8719ZM22.6667 28.8719H9.33333V29.3719H22.6667V28.8719ZM23.9167 30.1219C23.9167 29.4316 23.357 28.8719 22.6667 28.8719V29.3719C23.0809 29.3719 23.4167 29.7077 23.4167 30.1219H23.9167ZM22.6667 31.3719C23.357 31.3719 23.9167 30.8123 23.9167 30.1219H23.4167C23.4167 30.5361 23.0809 30.8719 22.6667 30.8719V31.3719ZM9.33333 31.3719H22.6667V30.8719H9.33333V31.3719ZM8.08333 30.1219C8.08333 30.8123 8.64298 31.3719 9.33333 31.3719V30.8719C8.91912 30.8719 8.58333 30.5361 8.58333 30.1219H8.08333Z" fill="#B0AFAB"/>
</svg>
