<svg width="26" height="28" viewBox="0 0 26 28" fill="none" xmlns="http://www.w3.org/2000/svg">
<path d="M6.28595 5.24999L7.85742 6.99999M9.95272 2.33333L10.4765 5.83333M14.1433 4.66666L13.0957 6.41666M11.0004 25.0833C8.52488 24.0524 6.46012 20.5246 5.42672 18.4583C4.98054 17.5661 5.21558 16.4702 5.93163 15.8323C6.72978 15.1213 7.88036 15.1922 8.60314 15.9971L9.42889 16.9167V10.2083C9.42889 9.40292 10.0152 8.74999 10.7385 8.74999C11.4617 8.74999 12.048 9.40292 12.048 10.2083V13.7083C12.048 12.9029 12.6343 12.25 13.3576 12.25C14.0808 12.25 14.6671 12.9029 14.6671 13.7083V14.875C14.6671 14.0696 15.2535 13.4167 15.9767 13.4167C16.6999 13.4167 17.2863 14.0696 17.2863 14.875V16.0417C17.2863 15.2363 17.8726 14.5833 18.5958 14.5833C19.3191 14.5833 19.9054 15.2363 19.9054 16.0417V20.6313C19.9054 21.2557 19.7668 21.8727 19.4436 22.3829C18.9074 23.2294 17.9437 24.5196 16.7624 25.0833C14.929 25.9583 13.2895 26.0367 11.0004 25.0833Z" stroke="#282828" stroke-width="1.5" stroke-linecap="round" stroke-linejoin="round"/>
</svg>
