<svg width="18" height="19" viewBox="0 0 18 19" fill="none" xmlns="http://www.w3.org/2000/svg">
<path d="M4.689 2.72217H6.21V3.64017H4.689V5.16117H3.771V3.64017H2.25V2.72217H3.771V1.20117H4.689V2.72217Z" fill="#BD9365"/>
<path fill-rule="evenodd" clip-rule="evenodd" d="M9.17809 2.31725C7.68388 2.31725 6.47258 3.52854 6.47258 5.02275V5.78398H4.21338C3.59206 5.78398 3.08838 6.28766 3.08838 6.90898V12.1396C3.08838 14.9356 5.35494 17.2021 8.15088 17.2021H10.2053C13.0012 17.2021 15.2678 14.9356 15.2678 12.1396V6.90898C15.2678 6.28766 14.7641 5.78398 14.1428 5.78398H11.8836V5.02275C11.8836 3.52854 10.6723 2.31725 9.17809 2.31725ZM11.0398 6.62773V8.0676C11.0398 8.30059 11.2287 8.48947 11.4617 8.48947C11.6947 8.48947 11.8836 8.30059 11.8836 8.0676V6.62773H14.1428C14.2981 6.62773 14.424 6.75365 14.424 6.90898V12.1396C14.424 14.4696 12.5352 16.3584 10.2053 16.3584H8.15088C5.82093 16.3584 3.93213 14.4696 3.93213 12.1396V6.90898C3.93213 6.75365 4.05805 6.62773 4.21338 6.62773H6.47258V8.0676C6.47258 8.30059 6.66146 8.48947 6.89445 8.48947C7.12745 8.48947 7.31633 8.30059 7.31633 8.0676V6.62773H11.0398ZM11.0398 5.78398V5.02275C11.0398 3.99453 10.2063 3.161 9.17809 3.161C8.14987 3.161 7.31633 3.99453 7.31633 5.02275V5.78398H11.0398Z" fill="#282828"/>
</svg>
