<svg width="12" height="12" viewBox="0 0 12 12" fill="none" xmlns="http://www.w3.org/2000/svg">
<g clip-path="url(#clip0_2_688)">
<path d="M6 1.375C7.72589 1.375 9.125 2.77411 9.125 4.5V9.125H2.875V4.5C2.875 2.77411 4.27411 1.375 6 1.375ZM9.875 9.125V4.5C9.875 2.35989 8.14011 0.625 6 0.625C3.85989 0.625 2.125 2.35989 2.125 4.5V9.125H1C0.792893 9.125 0.625 9.29289 0.625 9.5C0.625 9.70711 0.792893 9.875 1 9.875H11C11.2071 9.875 11.375 9.70711 11.375 9.5C11.375 9.29289 11.2071 9.125 11 9.125H9.875Z" fill="#1C1B1E"/>
<path d="M4.375 9.5C4.375 9.29289 4.54289 9.125 4.75 9.125H7.25C7.45711 9.125 7.625 9.29289 7.625 9.5V9.75C7.625 10.6475 6.89746 11.375 6 11.375C5.10254 11.375 4.375 10.6475 4.375 9.75V9.5ZM5.13386 9.875C5.19452 10.299 5.5592 10.625 6 10.625C6.4408 10.625 6.80548 10.299 6.86614 9.875H5.13386Z" fill="#1C1B1E"/>
</g>
<defs>
<clipPath id="clip0_2_688">
<rect width="12" height="12" fill="white"/>
</clipPath>
</defs>
</svg>
