<svg width="16" height="16" viewBox="0 0 16 16" fill="none" xmlns="http://www.w3.org/2000/svg">
<path fill-rule="evenodd" clip-rule="evenodd" d="M14.5 8C14.5 8.27614 14.2761 8.5 14 8.5L2.00001 8.5C1.72386 8.5 1.50001 8.27614 1.50001 8C1.50001 7.72386 1.72386 7.5 2.00001 7.5L14 7.5C14.2761 7.5 14.5 7.72386 14.5 8Z" fill="#B0AFAB"/>
<path fill-rule="evenodd" clip-rule="evenodd" d="M6.35355 12.3536C6.15829 12.5488 5.84171 12.5488 5.64645 12.3536L1.64645 8.35355C1.45118 8.15829 1.45118 7.84171 1.64645 7.64645L5.64645 3.64645C5.84171 3.45118 6.15829 3.45118 6.35355 3.64645C6.54882 3.84171 6.54882 4.15829 6.35355 4.35355L2.70711 8L6.35355 11.6464C6.54882 11.8417 6.54882 12.1583 6.35355 12.3536Z" fill="#B0AFAB"/>
</svg>
