<svg width="24" height="28" viewBox="0 0 24 28" fill="none" xmlns="http://www.w3.org/2000/svg">
<path fill-rule="evenodd" clip-rule="evenodd" d="M14.9997 5.12191C14.9997 2.72867 16.9398 0.788574 19.333 0.788574C21.7262 0.788574 23.6663 2.72867 23.6663 5.12191C23.6663 7.51513 21.7262 9.45524 19.333 9.45524C18.029 9.45524 16.8595 8.87924 16.0651 7.96778L8.76851 12.3885C8.91837 12.8277 8.99967 13.2986 8.99967 13.7886C8.99967 14.2359 8.9319 14.6673 8.80606 15.0733L16.2117 19.4494C17 18.631 18.107 18.1219 19.333 18.1219C21.7262 18.1219 23.6663 20.062 23.6663 22.4552C23.6663 24.8485 21.7262 26.7886 19.333 26.7886C16.9398 26.7886 14.9997 24.8485 14.9997 22.4552C14.9997 22.008 15.0674 21.5765 15.1933 21.1706L7.78757 16.7945C6.99931 17.6128 5.89227 18.1219 4.66634 18.1219C2.27312 18.1219 0.333008 16.1818 0.333008 13.7886C0.333008 11.3954 2.27312 9.45524 4.66634 9.45524C5.84854 9.45524 6.92017 9.92866 7.702 10.6962L15.1333 6.19389C15.046 5.85106 14.9997 5.4919 14.9997 5.12191ZM19.333 2.78857C18.0444 2.78857 16.9997 3.83325 16.9997 5.12191C16.9997 6.41056 18.0444 7.45524 19.333 7.45524C20.6217 7.45524 21.6663 6.41056 21.6663 5.12191C21.6663 3.83325 20.6217 2.78857 19.333 2.78857ZM4.66634 11.4552C3.37769 11.4552 2.33301 12.4999 2.33301 13.7886C2.33301 15.0772 3.37769 16.1219 4.66634 16.1219C5.95499 16.1219 6.99967 15.0772 6.99967 13.7886C6.99967 12.4999 5.95499 11.4552 4.66634 11.4552ZM16.9997 22.4552C16.9997 21.1666 18.0444 20.1219 19.333 20.1219C20.6217 20.1219 21.6663 21.1666 21.6663 22.4552C21.6663 23.7439 20.6217 24.7886 19.333 24.7886C18.0444 24.7886 16.9997 23.7439 16.9997 22.4552Z" fill="#282828"/>
<path d="M16.0651 7.96778L16.2536 7.80352C16.1737 7.71189 16.0395 7.69098 15.9356 7.75396L16.0651 7.96778ZM8.76851 12.3885L8.63897 12.1747C8.53853 12.2355 8.49398 12.3581 8.53191 12.4692L8.76851 12.3885ZM8.80606 15.0733L8.56727 14.9993C8.53298 15.1099 8.57916 15.2296 8.67888 15.2885L8.80606 15.0733ZM16.2117 19.4494L16.0845 19.6646C16.1843 19.7235 16.3114 19.7062 16.3918 19.6228L16.2117 19.4494ZM15.1933 21.1706L15.432 21.2446C15.4663 21.134 15.4202 21.0143 15.3204 20.9554L15.1933 21.1706ZM7.78757 16.7945L7.91475 16.5793C7.81502 16.5204 7.68788 16.5377 7.60752 16.6211L7.78757 16.7945ZM7.702 10.6962L7.52685 10.8746C7.60839 10.9547 7.73382 10.9693 7.83154 10.9101L7.702 10.6962ZM15.1333 6.19389L15.2628 6.40771C15.3569 6.3507 15.4027 6.23887 15.3756 6.13224L15.1333 6.19389ZM19.333 0.538574C16.8017 0.538574 14.7497 2.5906 14.7497 5.12191H15.2497C15.2497 2.86675 17.0779 1.03857 19.333 1.03857V0.538574ZM23.9163 5.12191C23.9163 2.5906 21.8643 0.538574 19.333 0.538574V1.03857C21.5882 1.03857 23.4163 2.86675 23.4163 5.12191H23.9163ZM19.333 9.70524C21.8643 9.70524 23.9163 7.6532 23.9163 5.12191H23.4163C23.4163 7.37706 21.5882 9.20524 19.333 9.20524V9.70524ZM15.8766 8.13204C16.7165 9.09565 17.9537 9.70524 19.333 9.70524V9.20524C18.1043 9.20524 17.0025 8.66282 16.2536 7.80352L15.8766 8.13204ZM8.89806 12.6023L16.1946 8.1816L15.9356 7.75396L8.63897 12.1747L8.89806 12.6023ZM9.24967 13.7886C9.24967 13.2708 9.16373 12.7726 9.00512 12.3078L8.53191 12.4692C8.67301 12.8828 8.74967 13.3265 8.74967 13.7886H9.24967ZM9.04485 15.1473C9.17804 14.7177 9.24967 14.2613 9.24967 13.7886H8.74967C8.74967 14.2105 8.68576 14.617 8.56727 14.9993L9.04485 15.1473ZM16.3389 19.2341L8.93325 14.858L8.67888 15.2885L16.0845 19.6646L16.3389 19.2341ZM16.3918 19.6228C17.1349 18.8514 18.1777 18.3719 19.333 18.3719V17.8719C18.0364 17.8719 16.8651 18.4107 16.0317 19.2759L16.3918 19.6228ZM19.333 18.3719C21.5882 18.3719 23.4163 20.2001 23.4163 22.4552H23.9163C23.9163 19.924 21.8643 17.8719 19.333 17.8719V18.3719ZM23.4163 22.4552C23.4163 24.7104 21.5882 26.5386 19.333 26.5386V27.0386C21.8643 27.0386 23.9163 24.9865 23.9163 22.4552H23.4163ZM19.333 26.5386C17.0779 26.5386 15.2497 24.7104 15.2497 22.4552H14.7497C14.7497 24.9865 16.8017 27.0386 19.333 27.0386V26.5386ZM15.2497 22.4552C15.2497 22.0334 15.3136 21.6269 15.432 21.2446L14.9545 21.0966C14.8213 21.5262 14.7497 21.9826 14.7497 22.4552H15.2497ZM7.66038 17.0097L15.0661 21.3859L15.3204 20.9554L7.91475 16.5793L7.66038 17.0097ZM4.66634 18.3719C5.96296 18.3719 7.13419 17.8332 7.96762 16.968L7.60752 16.6211C6.86443 17.3925 5.82158 17.8719 4.66634 17.8719V18.3719ZM0.0830078 13.7886C0.0830078 16.3199 2.13505 18.3719 4.66634 18.3719V17.8719C2.41119 17.8719 0.583008 16.0437 0.583008 13.7886H0.0830078ZM4.66634 9.20524C2.13505 9.20524 0.0830078 11.2573 0.0830078 13.7886H0.583008C0.583008 11.5334 2.41119 9.70524 4.66634 9.70524V9.20524ZM7.87714 10.5178C7.05047 9.70623 5.91666 9.20524 4.66634 9.20524V9.70524C5.78042 9.70524 6.78987 10.1511 7.52685 10.8746L7.87714 10.5178ZM15.0037 5.98008L7.57245 10.4824L7.83154 10.9101L15.2628 6.40771L15.0037 5.98008ZM14.7497 5.12191C14.7497 5.51286 14.7987 5.89273 14.891 6.25555L15.3756 6.13224C15.2934 5.80939 15.2497 5.47093 15.2497 5.12191H14.7497ZM17.2497 5.12191C17.2497 3.97132 18.1824 3.03857 19.333 3.03857V2.53857C17.9063 2.53857 16.7497 3.69518 16.7497 5.12191H17.2497ZM19.333 7.20524C18.1824 7.20524 17.2497 6.27249 17.2497 5.12191H16.7497C16.7497 6.54863 17.9063 7.70524 19.333 7.70524V7.20524ZM21.4163 5.12191C21.4163 6.27249 20.4836 7.20524 19.333 7.20524V7.70524C20.7597 7.70524 21.9163 6.54863 21.9163 5.12191H21.4163ZM19.333 3.03857C20.4836 3.03857 21.4163 3.97132 21.4163 5.12191H21.9163C21.9163 3.69518 20.7597 2.53857 19.333 2.53857V3.03857ZM2.58301 13.7886C2.58301 12.638 3.51576 11.7052 4.66634 11.7052V11.2052C3.23962 11.2052 2.08301 12.3619 2.08301 13.7886H2.58301ZM4.66634 15.8719C3.51576 15.8719 2.58301 14.9392 2.58301 13.7886H2.08301C2.08301 15.2153 3.23962 16.3719 4.66634 16.3719V15.8719ZM6.74967 13.7886C6.74967 14.9392 5.81692 15.8719 4.66634 15.8719V16.3719C6.09306 16.3719 7.24967 15.2153 7.24967 13.7886H6.74967ZM4.66634 11.7052C5.81692 11.7052 6.74967 12.638 6.74967 13.7886H7.24967C7.24967 12.3619 6.09306 11.2052 4.66634 11.2052V11.7052ZM19.333 19.8719C17.9063 19.8719 16.7497 21.0285 16.7497 22.4552H17.2497C17.2497 21.3047 18.1824 20.3719 19.333 20.3719V19.8719ZM21.9163 22.4552C21.9163 21.0285 20.7597 19.8719 19.333 19.8719V20.3719C20.4836 20.3719 21.4163 21.3047 21.4163 22.4552H21.9163ZM19.333 25.0386C20.7597 25.0386 21.9163 23.882 21.9163 22.4552H21.4163C21.4163 23.6058 20.4836 24.5386 19.333 24.5386V25.0386ZM16.7497 22.4552C16.7497 23.882 17.9063 25.0386 19.333 25.0386V24.5386C18.1824 24.5386 17.2497 23.6058 17.2497 22.4552H16.7497Z" fill="#B0AFAB"/>
</svg>
